<?xml version="1.0" encoding="UTF-8"?><svg xmlns="http://www.w3.org/2000/svg" viewBox="0 0 333.72 333.72"><defs><style>.cls-1{stroke-width:1.21px;}.cls-1,.cls-2,.cls-3{fill:none;stroke:#121a1b;stroke-miterlimit:10;}.cls-4{fill:#caccce;}.cls-2{stroke-width:1.31px;}.cls-5{fill:#252427;}.cls-6{fill:#359071;}.cls-7{isolation:isolate;}.cls-8{fill:#3d1863;}.cls-3{stroke-width:1.41px;}.cls-9{fill:#313133;}.cls-10{fill:#572783;}.cls-11,.cls-12{fill:#121a1b;}.cls-12{mix-blend-mode:screen;}</style></defs><g class="cls-7"><g id="Layer_1"><g><circle class="cls-11" cx="166.86" cy="166.86" r="166.86" transform="translate(-69.12 166.86) rotate(-45)"/><circle class="cls-9" cx="166.85" cy="166.87" r="142.56"/><circle class="cls-5" cx="166.85" cy="166.87" r="109.35"/><path class="cls-8" d="m254.08,165.87c0,17.67-5.16,34.15-14.06,48-7.22-21.35-37.59-37.38-73.95-37.38s-68.5,16.96-74.53,39.24c-9.64-14.23-15.28-31.39-15.28-49.86s5.32-34.62,14.47-48.59c3.09,24.28,35.64,43.37,75.35,43.37s70.25-17.94,74.98-41.14c8.26,13.49,13.03,29.37,13.03,46.36Z"/><path class="cls-6" d="m240.02,213.87c-15.81,24.62-43.43,40.93-74.86,40.93s-57.64-15.5-73.63-39.07c6.03-22.28,37.11-39.24,74.53-39.24s66.73,16.03,73.95,37.38Z"/><path class="cls-6" d="m241.05,119.5h0c-4.74,23.22-36.5,41.16-74.98,41.16s-72.26-19.09-75.35-43.37h0c15.85-24.29,43.27-40.33,74.45-40.33s60.25,17.03,75.89,42.54Z"/><path class="cls-10" d="m241.05,119.5h0c-4.74,23.22-36.5,41.16-74.98,41.16s-72.26-19.09-75.35-43.37h0c15.85-24.29,43.27-40.33,74.45-40.33s60.25,17.03,75.89,42.54Z"/><path class="cls-10" d="m240.02,213.87c-15.81,24.62-43.43,40.93-74.86,40.93s-57.64-15.5-73.63-39.07c6.03-22.28,37.11-39.24,74.53-39.24s66.73,16.03,73.95,37.38Z"/><circle class="cls-4" cx="166.85" cy="166.87" r="38.04"/><circle class="cls-3" cx="166.85" cy="166.87" r="136.56"/><circle class="cls-2" cx="166.85" cy="166.51" r="127.05"/><circle class="cls-1" cx="166.85" cy="166.51" r="117.41"/><path class="cls-12" d="m333.72,166.86c0,92.16-74.72,166.86-166.86,166.86V0c92.14,0,166.86,74.72,166.86,166.86Z"/><path class="cls-8" d="m166.01,162.82c4.48.45,6.63,4.27,6.67,7.17.06,4.32-1.65,6.37-6.62,7.63,0,1.72-.01,3.46,0,5.2.01,1.22-.18,2.38-.77,3.46-1.05,1.94-3.01,2.87-5.45,2.57-2.21-.27-3.99-1.7-4.47-3.74-.17-.71-.2-1.5-.06-2.21.25-1.31,1.55-2.11,2.95-1.99,1.31.11,2.33,1.14,2.48,2.49.14,1.27-.73,2.56-1.98,2.92-.26.07-.53.12-.8.18.46,1.12,2.01,1.74,3.51,1.41,1.86-.41,3.4-2.14,3.51-4.18.1-1.99.02-3.99.02-6.01-.83-.1-1.65-.13-2.44-.29-4.42-.9-7.5-4.58-7.77-9.15-.25-4.2,1.59-7.45,4.62-10.09,1.53-1.33,3.31-2.39,5-3.52.42-.28.61-.53.62-1.05.05-2.44,0-4.9.29-7.32.4-3.31,1.95-5.99,5.13-7.49.5-.24.78-.17,1.11.26,1.63,2.17,1.93,4.66,1.77,7.25-.32,5.02-2.55,8.94-6.87,11.61-.2.12-.42.4-.42.61-.04,1.42-.02,2.84-.02,4.29Zm-.99-4.11c-2.36,1.3-4.52,2.63-6.36,4.47-3.72,3.72-2.26,9.34.82,11.73,1.62,1.25,3.44,1.81,5.49,1.74v-9.68c-2.49.12-3.89,1.72-3.56,4.01.14.95.58,1.74,1.29,2.38.16.15.26.37.45.64-.25.02-.33.04-.4.02-.12-.04-.23-.09-.33-.16-1.47-.96-2.37-2.29-2.51-4.04-.25-3.11,1.56-5.73,4.53-6.69.23-.07.56-.32.57-.5.05-1.26.03-2.53.03-3.92Zm1-5.01c2.25-1.44,4.23-2.95,5.49-5.22.91-1.65,1.04-3.41.65-5.22-.19-.88-.5-1.04-1.32-.61-.52.28-1.03.62-1.45,1.04-2.73,2.72-3.63,6.08-3.37,10.01Zm.04,22.79c2.34-.21,4.05-2.44,3.96-5.1-.09-2.48-1.75-4.33-3.96-4.37v9.47Z"/></g></g></g></svg>