<?xml version="1.0" encoding="UTF-8"?><svg xmlns="http://www.w3.org/2000/svg" viewBox="0 0 438.32 438.32"><defs><style>.cls-1{fill:#caccce;}.cls-2{fill:#22423a;}.cls-3{fill:#252427;}.cls-4{fill:#359071;}.cls-5{isolation:isolate;}.cls-6{fill:#209d6e;}.cls-7{stroke-width:1.72px;}.cls-7,.cls-8,.cls-9{fill:none;stroke:#121a1b;stroke-miterlimit:10;}.cls-8{stroke-width:1.59px;}.cls-10{fill:#313133;}.cls-11,.cls-12{fill:#121a1b;}.cls-9{stroke-width:1.85px;}.cls-12{mix-blend-mode:screen;}</style></defs><g class="cls-5"><g id="Layer_1"><g><circle class="cls-11" cx="219.16" cy="219.16" r="219.16" transform="translate(-90.78 219.16) rotate(-45)"/><circle class="cls-10" cx="219.15" cy="219.17" r="187.24"/><circle class="cls-3" cx="219.15" cy="219.17" r="143.62"/><path class="cls-2" d="m333.72,217.86c0,23.2-6.78,44.85-18.46,63.04-9.48-28.04-49.37-49.09-97.13-49.09s-89.97,22.28-97.89,51.54c-12.67-18.69-20.07-41.22-20.07-65.48s6.98-45.46,19-63.82c4.06,31.89,46.82,56.97,98.97,56.97s92.26-23.56,98.49-54.04c10.85,17.72,17.11,38.58,17.11,60.89Z"/><path class="cls-4" d="m315.25,280.9c-20.76,32.33-57.04,53.76-98.32,53.76s-75.71-20.35-96.71-51.32c7.93-29.26,48.74-51.54,97.89-51.54s87.65,21.06,97.13,49.09Z"/><path class="cls-4" d="m316.61,156.95v.02c-6.22,30.48-47.95,54.04-98.49,54.04s-94.91-25.08-98.97-56.97v-.02c20.82-31.89,56.84-52.95,97.78-52.95s79.13,22.37,99.67,55.87Z"/><path class="cls-6" d="m316.61,156.95v.02c-6.22,30.48-47.95,54.04-98.49,54.04s-94.91-25.08-98.97-56.97v-.02c20.82-31.89,56.84-52.95,97.78-52.95s79.13,22.37,99.67,55.87Z"/><path class="cls-6" d="m315.25,280.9c-20.76,32.33-57.04,53.76-98.32,53.76s-75.71-20.35-96.71-51.32c7.93-29.26,48.74-51.54,97.89-51.54s87.65,21.06,97.13,49.09Z"/><circle class="cls-1" cx="219.15" cy="219.17" r="49.96"/><circle class="cls-9" cx="219.15" cy="219.17" r="179.36"/><circle class="cls-7" cx="219.15" cy="218.69" r="166.87"/><circle class="cls-8" cx="219.15" cy="218.69" r="154.21"/><path class="cls-2" d="m233.33,230.77v-22.4c-.52.09-1.02.17-1.52.26-7.48,1.35-14.97,2.71-22.45,4.07-.61.11-1.21.23-1.82.32-.29.04-.39.14-.39.45,0,8.98-.03,17.96.03,26.93.03,4.15-3.11,6.78-6.34,7.21-2.5.33-4.73-.28-6.6-2.01-2.85-2.62-2.79-7.06.11-9.64,2.53-2.24,6.27-2.64,9.22-.98.1.06.2.11.35.2,0-.17.02-.3.02-.42,0-9.07,0-18.15,0-27.22,0-3.56,0-7.12,0-10.68,0-.28.08-.38.35-.42,4.4-.79,8.8-1.59,13.2-2.38,5.17-.93,10.34-1.87,15.51-2.8,1.1-.2,2.2-.4,3.3-.59.07-.01.15-.02.26-.03v.45c0,15.06,0,30.13,0,45.19,0,2.5-1.1,4.42-3.17,5.77-2.74,1.8-6.36,1.69-9.01-.21-3.9-2.8-3.77-8.39.29-10.95,2.72-1.72,5.54-1.74,8.38-.24.08.04.16.08.28.14Z"/><path class="cls-12" d="m438.32,219.16c0,121.04-98.13,219.16-219.16,219.16V0c121.02,0,219.16,98.13,219.16,219.16Z"/></g></g></g></svg>