<?xml version="1.0" encoding="UTF-8"?><svg xmlns="http://www.w3.org/2000/svg" viewBox="0 0 333.72 333.72"><defs><style>.cls-1{stroke-width:1.21px;}.cls-1,.cls-2,.cls-3{fill:none;stroke:#121a1b;stroke-miterlimit:10;}.cls-4{fill:#caccce;}.cls-2{stroke-width:1.31px;}.cls-5{fill:#252427;}.cls-6{fill:#359071;}.cls-7{isolation:isolate;}.cls-8{fill:#9b217e;}.cls-3{stroke-width:1.41px;}.cls-9{fill:#313133;}.cls-10,.cls-11{fill:#121a1b;}.cls-12{fill:#cc50b5;}.cls-11{mix-blend-mode:screen;}</style></defs><g class="cls-7"><g id="Layer_1"><g><circle class="cls-10" cx="166.86" cy="166.86" r="166.86" transform="translate(-69.12 166.86) rotate(-45)"/><circle class="cls-9" cx="166.85" cy="166.87" r="142.56"/><circle class="cls-5" cx="166.85" cy="166.87" r="109.35"/><path class="cls-12" d="m254.08,165.87c0,17.67-5.16,34.15-14.06,48-7.22-21.35-37.59-37.38-73.95-37.38s-68.5,16.96-74.53,39.24c-9.64-14.23-15.28-31.39-15.28-49.86s5.32-34.62,14.47-48.59c3.09,24.28,35.64,43.37,75.35,43.37s70.25-17.94,74.98-41.14c8.26,13.49,13.03,29.37,13.03,46.36Z"/><path class="cls-6" d="m240.02,213.87c-15.81,24.62-43.43,40.93-74.86,40.93s-57.64-15.5-73.63-39.07c6.03-22.28,37.11-39.24,74.53-39.24s66.73,16.03,73.95,37.38Z"/><path class="cls-8" d="m240.02,213.87c-15.81,24.62-43.43,40.93-74.86,40.93s-57.64-15.5-73.63-39.07c6.03-22.28,37.11-39.24,74.53-39.24s66.73,16.03,73.95,37.38Z"/><circle class="cls-3" cx="166.85" cy="166.87" r="136.56"/><circle class="cls-2" cx="166.85" cy="166.51" r="127.05"/><circle class="cls-1" cx="166.85" cy="166.51" r="117.41"/><path class="cls-11" d="m333.72,166.86c0,92.16-74.72,166.86-166.86,166.86V0c92.14,0,166.86,74.72,166.86,166.86Z"/><path class="cls-6" d="m241.05,119.5h0c-4.74,23.22-36.5,41.16-74.98,41.16s-72.26-19.09-75.35-43.37h0c15.85-24.29,43.27-40.33,74.45-40.33s60.25,17.03,75.89,42.54Z"/><path class="cls-8" d="m241.05,119.5h0c-4.74,23.22-36.5,41.16-74.98,41.16s-72.26-19.09-75.35-43.37h0c15.85-24.29,43.27-40.33,74.45-40.33s60.25,17.03,75.89,42.54Z"/><circle class="cls-4" cx="166.85" cy="166.87" r="38.04"/><path class="cls-12" d="m161.28,152.73v25.84c1.77-.39,3.35-1.09,4.79-2.08,3.49-2.4,4.36-5.46,2.84-10.09-.35-1.07-1-2.05-1.55-3.06-.27-.5-.51-.99.05-1.39.59-.43,1.01-.06,1.38.41,1.98,2.51,3.29,5.28,3.37,8.54.06,2.59-.89,4.79-2.72,6.58-1.37,1.34-2.82,2.6-4.24,3.9-1.8,1.65-3.24,3.53-3.75,5.98-.09.44-.15.88-.21,1.33-.08.55-.41.86-.95.86-.56,0-.87-.34-.96-.87-.05-.27-.02-.55-.02-.82,0-12.65,0-25.31,0-37.96,0-3.33,1.52-5.56,4.64-6.76,1.93-.74,3.89-.84,5.83-.04,3.02,1.25,4.02,4.4,2.3,7.17-2.06,3.31-6.88,4.59-10.3,2.73-.13-.07-.26-.14-.5-.27Z"/></g></g></g></svg>