<?xml version="1.0" encoding="UTF-8"?><svg xmlns="http://www.w3.org/2000/svg" viewBox="0 0 333.72 333.72"><defs><style>.cls-1{stroke-width:1.21px;}.cls-1,.cls-2,.cls-3{fill:none;stroke:#121a1b;stroke-miterlimit:10;}.cls-4{fill:#caccce;}.cls-2{stroke-width:1.31px;}.cls-5{fill:#252427;}.cls-6{fill:#359071;}.cls-7{isolation:isolate;}.cls-8{fill:#96181f;}.cls-9{fill:#ed393b;}.cls-3{stroke-width:1.41px;}.cls-10{fill:#313133;}.cls-11,.cls-12{fill:#121a1b;}.cls-12{mix-blend-mode:screen;}</style></defs><g class="cls-7"><g id="Layer_1"><g><circle class="cls-11" cx="166.86" cy="166.86" r="166.86" transform="translate(-69.12 166.86) rotate(-45)"/><circle class="cls-10" cx="166.85" cy="166.87" r="142.56"/><circle class="cls-5" cx="166.85" cy="166.87" r="109.35"/><path class="cls-8" d="m254.08,165.87c0,17.67-5.16,34.15-14.06,48-7.22-21.35-37.59-37.38-73.95-37.38s-68.5,16.96-74.53,39.24c-9.64-14.23-15.28-31.39-15.28-49.86s5.32-34.62,14.47-48.59c3.09,24.28,35.64,43.37,75.35,43.37s70.25-17.94,74.98-41.14c8.26,13.49,13.03,29.37,13.03,46.36Z"/><path class="cls-6" d="m240.02,213.87c-15.81,24.62-43.43,40.93-74.86,40.93s-57.64-15.5-73.63-39.07c6.03-22.28,37.11-39.24,74.53-39.24s66.73,16.03,73.95,37.38Z"/><path class="cls-6" d="m241.05,119.5h0c-4.74,23.22-36.5,41.16-74.98,41.16s-72.26-19.09-75.35-43.37h0c15.85-24.29,43.27-40.33,74.45-40.33s60.25,17.03,75.89,42.54Z"/><path class="cls-9" d="m241.05,119.5h0c-4.74,23.22-36.5,41.16-74.98,41.16s-72.26-19.09-75.35-43.37h0c15.85-24.29,43.27-40.33,74.45-40.33s60.25,17.03,75.89,42.54Z"/><path class="cls-9" d="m240.02,213.87c-15.81,24.62-43.43,40.93-74.86,40.93s-57.64-15.5-73.63-39.07c6.03-22.28,37.11-39.24,74.53-39.24s66.73,16.03,73.95,37.38Z"/><circle class="cls-4" cx="166.85" cy="166.87" r="38.04"/><circle class="cls-3" cx="166.85" cy="166.87" r="136.56"/><circle class="cls-2" cx="166.85" cy="166.51" r="127.05"/><circle class="cls-1" cx="166.85" cy="166.51" r="117.41"/><path class="cls-12" d="m333.72,166.86c0,92.16-74.72,166.86-166.86,166.86V0c92.14,0,166.86,74.72,166.86,166.86Z"/><path class="cls-8" d="m166.64,176.8v-1.03c0-11.36,0-22.71,0-34.07,0-.32-.08-.71.06-.95.2-.32.59-.74.88-.72.34.02.9.43.93.72.37,3.66,2.6,6.1,5.26,8.3,1,.83,1.93,1.74,2.85,2.64,2.65,2.6,3.35,5.74,2.5,9.28-.54,2.27-1.65,4.26-3.13,6.06-.36.44-.77.69-1.28.32-.52-.37-.39-.86-.09-1.32,1.16-1.8,1.97-3.72,2.22-5.88.36-3.07-.76-5.4-3.22-7.17-1.49-1.07-3.15-1.79-5.04-2.28,0,.36,0,.64,0,.93,0,9.36,0,18.72,0,28.08,0,3.26-1.5,5.47-4.55,6.65-1.85.72-3.73.85-5.63.17-3.23-1.17-4.36-4.45-2.54-7.35,2.04-3.23,6.84-4.5,10.2-2.7.15.08.3.16.57.31Z"/></g></g></g></svg>