<?xml version="1.0" encoding="UTF-8"?><svg xmlns="http://www.w3.org/2000/svg" viewBox="0 0 333.72 333.72"><defs><style>.cls-1{stroke-width:1.21px;}.cls-1,.cls-2,.cls-3{fill:none;stroke:#121a1b;stroke-miterlimit:10;}.cls-4{fill:#caccce;}.cls-2{stroke-width:1.31px;}.cls-5{fill:#252427;}.cls-6{fill:#359071;}.cls-7{isolation:isolate;}.cls-3{stroke-width:1.41px;}.cls-8{fill:#3eb6d8;}.cls-9{fill:#1e839b;}.cls-10{fill:#313133;}.cls-11,.cls-12{fill:#121a1b;}.cls-12{mix-blend-mode:screen;}</style></defs><g class="cls-7"><g id="Layer_1"><g><circle class="cls-11" cx="166.86" cy="166.86" r="166.86" transform="translate(-69.12 166.86) rotate(-45)"/><circle class="cls-10" cx="166.85" cy="166.87" r="142.56"/><circle class="cls-5" cx="166.85" cy="166.87" r="109.35"/><path class="cls-9" d="m254.08,165.87c0,17.67-5.16,34.15-14.06,48-7.22-21.35-37.59-37.38-73.95-37.38s-68.5,16.96-74.53,39.24c-9.64-14.23-15.28-31.39-15.28-49.86s5.32-34.62,14.47-48.59c3.09,24.28,35.64,43.37,75.35,43.37s70.25-17.94,74.98-41.14c8.26,13.49,13.03,29.37,13.03,46.36Z"/><path class="cls-6" d="m240.02,213.87c-15.81,24.62-43.43,40.93-74.86,40.93s-57.64-15.5-73.63-39.07c6.03-22.28,37.11-39.24,74.53-39.24s66.73,16.03,73.95,37.38Z"/><path class="cls-6" d="m241.05,119.5h0c-4.74,23.22-36.5,41.16-74.98,41.16s-72.26-19.09-75.35-43.37h0c15.85-24.29,43.27-40.33,74.45-40.33s60.25,17.03,75.89,42.54Z"/><path class="cls-8" d="m241.05,119.5h0c-4.74,23.22-36.5,41.16-74.98,41.16s-72.26-19.09-75.35-43.37h0c15.85-24.29,43.27-40.33,74.45-40.33s60.25,17.03,75.89,42.54Z"/><path class="cls-8" d="m240.02,213.87c-15.81,24.62-43.43,40.93-74.86,40.93s-57.64-15.5-73.63-39.07c6.03-22.28,37.11-39.24,74.53-39.24s66.73,16.03,73.95,37.38Z"/><circle class="cls-4" cx="166.85" cy="166.87" r="38.04"/><circle class="cls-3" cx="166.85" cy="166.87" r="136.56"/><circle class="cls-2" cx="166.85" cy="166.51" r="127.05"/><circle class="cls-1" cx="166.85" cy="166.51" r="117.41"/><path class="cls-12" d="m333.72,166.86c0,92.16-74.72,166.86-166.86,166.86V0c92.14,0,166.86,74.72,166.86,166.86Z"/><path class="cls-9" d="m166.07,177.38c0-.36,0-.62,0-.89,0-10.36,0-20.72,0-31.08,0-1.19.12-1.36,1.28-1.62,3.64-.83,7.29-1.66,10.93-2.49.12-.03.24-.05.43-.09.02.26.06.47.06.68,0,2.22-.03,4.44.02,6.66.02.69-.26.88-.85,1.01-3.11.69-6.22,1.41-9.33,2.12-.19.04-.37.12-.59.19,0,.24,0,.47,0,.69,0,9.34-.02,18.67.02,28.01,0,2.27-.89,4.02-2.68,5.31-2.21,1.6-4.67,2.12-7.3,1.3-3.57-1.11-4.73-4.76-2.52-7.77,2.26-3.07,6.81-4.08,10.14-2.24.1.06.21.11.41.21Z"/></g></g></g></svg>