<?xml version="1.0" encoding="UTF-8"?><svg xmlns="http://www.w3.org/2000/svg" viewBox="0 0 333.72 333.72"><defs><style>.cls-1{stroke-width:1.21px;}.cls-1,.cls-2,.cls-3{fill:none;stroke:#121a1b;stroke-miterlimit:10;}.cls-4{fill:#caccce;}.cls-2{stroke-width:1.31px;}.cls-5{fill:#252427;}.cls-6{fill:#359071;}.cls-7{isolation:isolate;}.cls-8{fill:#ba941c;}.cls-3{stroke-width:1.41px;}.cls-9{fill:#313133;}.cls-10,.cls-11{fill:#121a1b;}.cls-12{fill:#fcd025;}.cls-11{mix-blend-mode:screen;}</style></defs><g class="cls-7"><g id="Layer_1"><g><circle class="cls-10" cx="166.86" cy="166.86" r="166.86" transform="translate(-69.12 166.86) rotate(-45)"/><circle class="cls-9" cx="166.85" cy="166.87" r="142.56"/><circle class="cls-5" cx="166.85" cy="166.87" r="109.35"/><path class="cls-8" d="m254.08,165.87c0,17.67-5.16,34.15-14.06,48-7.22-21.35-37.59-37.38-73.95-37.38s-68.5,16.96-74.53,39.24c-9.64-14.23-15.28-31.39-15.28-49.86s5.32-34.62,14.47-48.59c3.09,24.28,35.64,43.37,75.35,43.37s70.25-17.94,74.98-41.14c8.26,13.49,13.03,29.37,13.03,46.36Z"/><path class="cls-6" d="m240.02,213.87c-15.81,24.62-43.43,40.93-74.86,40.93s-57.64-15.5-73.63-39.07c6.03-22.28,37.11-39.24,74.53-39.24s66.73,16.03,73.95,37.38Z"/><path class="cls-6" d="m241.05,119.5h0c-4.74,23.22-36.5,41.16-74.98,41.16s-72.26-19.09-75.35-43.37h0c15.85-24.29,43.27-40.33,74.45-40.33s60.25,17.03,75.89,42.54Z"/><path class="cls-12" d="m241.05,119.5h0c-4.74,23.22-36.5,41.16-74.98,41.16s-72.26-19.09-75.35-43.37h0c15.85-24.29,43.27-40.33,74.45-40.33s60.25,17.03,75.89,42.54Z"/><path class="cls-12" d="m240.02,213.87c-15.81,24.62-43.43,40.93-74.86,40.93s-57.64-15.5-73.63-39.07c6.03-22.28,37.11-39.24,74.53-39.24s66.73,16.03,73.95,37.38Z"/><circle class="cls-4" cx="166.85" cy="166.87" r="38.04"/><circle class="cls-3" cx="166.85" cy="166.87" r="136.56"/><circle class="cls-2" cx="166.85" cy="166.51" r="127.05"/><circle class="cls-1" cx="166.85" cy="166.51" r="117.41"/><path class="cls-11" d="m333.72,166.86c0,92.16-74.72,166.86-166.86,166.86V0c92.14,0,166.86,74.72,166.86,166.86Z"/><path class="cls-8" d="m184.26,176.22v-24.86c-.21,0-.4-.02-.59,0-6.19.72-12.38,1.45-18.57,2.18-2.18.26-4.36.55-6.54.74-.7.06-.89.28-.89.98.02,9.06.02,18.12.02,27.18,0,3.85-2.08,6.43-5.86,7.25-1.57.34-3.13.29-4.62-.35-3.01-1.28-3.99-4.42-2.25-7.19,2.04-3.27,6.86-4.55,10.25-2.72.15.08.3.14.53.26.02-.32.04-.56.04-.8,0-10.21,0-20.41,0-30.62,0-1.55.31-1.86,1.83-2.04,6.22-.72,12.43-1.45,18.65-2.18,2.7-.32,5.4-.64,8.1-.94,1.34-.15,1.89.37,1.89,1.73,0,11.53-.02,23.06.02,34.59,0,2.15-.81,3.85-2.47,5.11-2.35,1.8-4.99,2.39-7.82,1.35-3.26-1.19-4.3-4.56-2.36-7.44,2.16-3.21,6.87-4.35,10.25-2.48.11.06.21.11.42.23Z"/></g></g></g></svg>