<?xml version="1.0" encoding="UTF-8"?><svg xmlns="http://www.w3.org/2000/svg" viewBox="0 0 333.72 333.72"><defs><style>.cls-1{fill:#5050d3;}.cls-2{fill:#29219b;}.cls-3{stroke-width:1.21px;}.cls-3,.cls-4,.cls-5{fill:none;stroke:#121a1b;stroke-miterlimit:10;}.cls-6{fill:#caccce;}.cls-4{stroke-width:1.31px;}.cls-7{fill:#252427;}.cls-8{fill:#359071;}.cls-9{isolation:isolate;}.cls-5{stroke-width:1.41px;}.cls-10{fill:#313133;}.cls-11,.cls-12{fill:#121a1b;}.cls-12{mix-blend-mode:screen;}</style></defs><g class="cls-9"><g id="Layer_1"><g><circle class="cls-11" cx="166.86" cy="166.86" r="166.86" transform="translate(-69.12 166.86) rotate(-45)"/><circle class="cls-10" cx="166.85" cy="166.87" r="142.56"/><circle class="cls-7" cx="166.85" cy="166.87" r="109.35"/><path class="cls-1" d="m254.08,165.87c0,17.67-5.16,34.15-14.06,48-7.22-21.35-37.59-37.38-73.95-37.38s-68.5,16.96-74.53,39.24c-9.64-14.23-15.28-31.39-15.28-49.86s5.32-34.62,14.47-48.59c3.09,24.28,35.64,43.37,75.35,43.37s70.25-17.94,74.98-41.14c8.26,13.49,13.03,29.37,13.03,46.36Z"/><path class="cls-8" d="m240.02,213.87c-15.81,24.62-43.43,40.93-74.86,40.93s-57.64-15.5-73.63-39.07c6.03-22.28,37.11-39.24,74.53-39.24s66.73,16.03,73.95,37.38Z"/><path class="cls-8" d="m241.05,119.5h0c-4.74,23.22-36.5,41.16-74.98,41.16s-72.26-19.09-75.35-43.37h0c15.85-24.29,43.27-40.33,74.45-40.33s60.25,17.03,75.89,42.54Z"/><path class="cls-2" d="m241.05,119.5h0c-4.74,23.22-36.5,41.16-74.98,41.16s-72.26-19.09-75.35-43.37h0c15.85-24.29,43.27-40.33,74.45-40.33s60.25,17.03,75.89,42.54Z"/><path class="cls-2" d="m240.02,213.87c-15.81,24.62-43.43,40.93-74.86,40.93s-57.64-15.5-73.63-39.07c6.03-22.28,37.11-39.24,74.53-39.24s66.73,16.03,73.95,37.38Z"/><circle class="cls-6" cx="166.85" cy="166.87" r="38.04"/><circle class="cls-5" cx="166.85" cy="166.87" r="136.56"/><circle class="cls-4" cx="166.85" cy="166.51" r="127.05"/><circle class="cls-3" cx="166.85" cy="166.51" r="117.41"/><path class="cls-12" d="m333.72,166.86c0,92.16-74.72,166.86-166.86,166.86V0c92.14,0,166.86,74.72,166.86,166.86Z"/><path class="cls-1" d="m170.64,180.18c0-.37,0-.63,0-.9,0-11.41,0-22.82,0-34.22,0-.32-.08-.73.08-.95.23-.32.62-.67.98-.71.46-.06.82.31.86.85.02.27,0,.55,0,.82,0,12.91,0,25.81.01,38.72,0,1.28-.39,2.4-1.13,3.41-2.02,2.74-6.14,3.92-9.27,2.64-3.08-1.26-4.1-4.47-2.3-7.28,2.07-3.23,6.82-4.48,10.21-2.67.15.08.3.16.56.29Zm-2.38,1.55c-2.57.21-4.86,1.18-6.71,3.09-.62.64-1.19,1.42-.76,2.34.44.92,1.42.98,2.29.92,2.61-.2,4.87-1.21,6.68-3.12.59-.62,1.13-1.37.71-2.28-.41-.89-1.32-.85-2.21-.94Z"/></g></g></g></svg>