<?xml version="1.0" encoding="UTF-8"?><svg xmlns="http://www.w3.org/2000/svg" viewBox="0 0 333.72 333.72"><defs><style>.cls-1{stroke-width:1.21px;}.cls-1,.cls-2,.cls-3{fill:none;stroke:#121a1b;stroke-miterlimit:10;}.cls-4{fill:#caccce;}.cls-5{fill:#fe9008;}.cls-2{stroke-width:1.31px;}.cls-6{fill:#252427;}.cls-7{fill:#359071;}.cls-8{fill:#8c5110;}.cls-9{isolation:isolate;}.cls-3{stroke-width:1.41px;}.cls-10{fill:#313133;}.cls-11,.cls-12{fill:#121a1b;}.cls-12{mix-blend-mode:screen;}</style></defs><g class="cls-9"><g id="Layer_1"><g><circle class="cls-11" cx="166.86" cy="166.86" r="166.86" transform="translate(-69.12 166.86) rotate(-45)"/><circle class="cls-10" cx="166.85" cy="166.87" r="142.56"/><circle class="cls-6" cx="166.85" cy="166.87" r="109.35"/><path class="cls-8" d="m254.08,165.87c0,17.67-5.16,34.15-14.06,48-7.22-21.35-37.59-37.38-73.95-37.38s-68.5,16.96-74.53,39.24c-9.64-14.23-15.28-31.39-15.28-49.86s5.32-34.62,14.47-48.59c3.09,24.28,35.64,43.37,75.35,43.37s70.25-17.94,74.98-41.14c8.26,13.49,13.03,29.37,13.03,46.36Z"/><path class="cls-7" d="m240.02,213.87c-15.81,24.62-43.43,40.93-74.86,40.93s-57.64-15.5-73.63-39.07c6.03-22.28,37.11-39.24,74.53-39.24s66.73,16.03,73.95,37.38Z"/><path class="cls-7" d="m241.05,119.5h0c-4.74,23.22-36.5,41.16-74.98,41.16s-72.26-19.09-75.35-43.37h0c15.85-24.29,43.27-40.33,74.45-40.33s60.25,17.03,75.89,42.54Z"/><path class="cls-5" d="m241.05,119.5h0c-4.74,23.22-36.5,41.16-74.98,41.16s-72.26-19.09-75.35-43.37h0c15.85-24.29,43.27-40.33,74.45-40.33s60.25,17.03,75.89,42.54Z"/><path class="cls-5" d="m240.02,213.87c-15.81,24.62-43.43,40.93-74.86,40.93s-57.64-15.5-73.63-39.07c6.03-22.28,37.11-39.24,74.53-39.24s66.73,16.03,73.95,37.38Z"/><circle class="cls-4" cx="166.85" cy="166.87" r="38.04"/><circle class="cls-3" cx="166.85" cy="166.87" r="136.56"/><circle class="cls-2" cx="166.85" cy="166.51" r="127.05"/><circle class="cls-1" cx="166.85" cy="166.51" r="117.41"/><path class="cls-12" d="m333.72,166.86c0,92.16-74.72,166.86-166.86,166.86V0c92.14,0,166.86,74.72,166.86,166.86Z"/><path class="cls-8" d="m168.31,174.95v-.89c0-11.4,0-22.81,0-34.21,0-.32-.08-.72.07-.95.22-.33.6-.68.96-.74.47-.08.88.28.88.81.02,3.23,1.91,5.4,4.12,7.4,1.18,1.07,2.38,2.12,3.54,3.22,3.2,3.02,3.77,6.65,2.4,10.69-.24.7-.24,1.25.05,1.96,1.12,2.69.84,5.41-.29,8-.62,1.42-1.55,2.72-2.38,4.04-.31.5-.77.96-1.42.47-.6-.45-.32-.97,0-1.45,1.35-2.04,2.14-4.26,2.2-6.73.05-2.07-.67-3.81-2.15-5.23-1.67-1.62-3.72-2.54-6.06-3.22,0,.4,0,.71,0,1.02,0,6.19,0,12.38,0,18.57,0,3.9-2.33,6.63-6.2,7.28-1.65.28-3.24.14-4.73-.63-2.52-1.31-3.36-4.04-2.05-6.56,1.8-3.45,6.78-5.03,10.26-3.26.22.11.43.23.77.42Zm-2.24,1.54c-2.58.26-4.88,1.22-6.7,3.18-.56.61-1.11,1.32-.7,2.21.42.92,1.35,1,2.19.95,2.64-.16,4.93-1.17,6.77-3.1.59-.62,1.16-1.36.75-2.27-.42-.97-1.4-.89-2.32-.98Zm4.19-27.61c.03.27.03.39.06.51.42,2.02,1.46,3.71,2.91,5.12,1.58,1.52,3.23,2.96,4.85,4.44.03.02.09,0,.16,0,.39-2.14.22-4.17-1.17-5.95-1.71-2.2-4.1-3.31-6.82-4.12Z"/></g></g></g></svg>